<svg width="600" height="600" xmlns="http://www.w3.org/2000/svg">
<title>Layer 1</title>
<path d="M299.763 599.525C134.148 599.525 0 465.378 0 299.763S134.148 0 299.763 0s299.762 134.148 299.762 299.763-134.147 299.762-299.762 299.762z" opacity="undefined" stroke="#000" fill="#444"/>
<path d="M299.763 599.525C134.148 599.525 0 465.378 0 299.763S134.148 0 299.763 0s299.762 134.148 299.762 299.763-134.147 299.762-299.762 299.762z" opacity="undefined" stroke="#000" fill="#1e1e1e"/>
<path stroke="#000" d="M300 574.068C150.116 574.068 28.71 451.42 28.71 300S150.115 25.932 300 25.932 571.29 148.58 571.29 300 449.885 574.068 300 574.068z" opacity="undefined" fill="#f0f"/>
<path fill="#fff" d="M263.144 263.243h73.713v73.398h-73.713z"/>
<path fill="#fff" d="M196.34 299.657 299.658 196.34 403.66 300.343 300.344 403.66z"/>
</svg>

